<svg width="13" height="13" viewBox="0 0 13 13" fill="none" xmlns="http://www.w3.org/2000/svg">
<g clip-path="url(#clip0)">
<path d="M3.37405 9.75063C3.40221 11.5503 4.88137 13.0026 6.68106 12.9999C8.50353 12.9973 9.98002 11.5195 9.98002 9.69699C9.98002 8.54773 9.39264 7.53525 8.50219 6.94386V6.37124C8.50219 6.13121 8.33054 5.93006 8.10391 5.88579H5.25017C5.02353 5.93004 4.85188 6.1312 4.85188 6.37124V6.94386C3.94667 7.54464 3.35528 8.57991 3.37405 9.75063ZM7.93761 11.5422C7.98991 11.5074 8.03953 11.4698 8.08781 11.4309C8.61752 11.0045 8.9273 10.3621 8.9273 9.67686C8.9273 9.09083 8.69932 8.53028 8.29567 8.11322C8.25275 8.06897 8.20715 8.0247 8.16021 7.98447C8.06231 7.89866 8.05293 7.75114 8.13875 7.65325C8.22458 7.55534 8.37209 7.54597 8.46999 7.63178C9.06005 8.14943 9.39799 8.89503 9.39799 9.6782C9.39799 10.582 8.95008 11.4256 8.20043 11.9325C8.1602 11.9593 8.11461 11.9727 8.06901 11.9727C7.99391 11.9727 7.92015 11.9365 7.87455 11.8694C7.80351 11.7608 7.83033 11.6147 7.93761 11.5422ZM5.77451 6.48389H7.58089C7.67341 6.48389 7.74852 6.55898 7.74852 6.65152C7.74852 6.74403 7.67341 6.81914 7.58089 6.81914H5.77451C5.68198 6.81914 5.60688 6.74403 5.60688 6.65152C5.60688 6.55898 5.68198 6.48389 5.77451 6.48389Z" fill="rgba(83, 83, 83, 0.2)"/>
<path d="M4.51929 5.19384C4.53003 5.1697 4.54209 5.1469 4.55686 5.1241L6.30691 2.42057L4.74056 0H1.15865L4.51929 5.19384Z" fill="rgba(83, 83, 83, 0.200)"/>
<path d="M8.26078 0.0201187L6.50671 2.72901L4.83846 5.30649C4.79555 5.37354 4.80896 5.45265 4.85722 5.50361C4.8854 5.53311 4.92563 5.5519 4.97121 5.5519H8.17494C8.22859 5.5519 8.27954 5.52508 8.30769 5.47948L11.8413 0.0201187H8.26078Z" fill="rgba(83, 83, 83, 0.200)"/>
</g>
<defs>
<clipPath id="clip0">
<rect width="13" height="13" fill="white"/>
</clipPath>
</defs>
</svg>
